<svg width="268" height="267" xmlns="http://www.w3.org/2000/svg" xmlns:xlink="http://www.w3.org/1999/xlink" overflow="hidden"><defs><clipPath id="clip0"><rect x="1144" y="1104" width="268" height="267"/></clipPath></defs><g clip-path="url(#clip0)" transform="translate(-1144 -1104)"><path d="M1277.53 1205.34C1273.57 1205.34 1270.35 1206.69 1267.87 1209.38 1265.39 1212.08 1264.16 1216.09 1264.16 1221.42L1264.16 1298.49C1264.16 1303.75 1265.39 1307.8 1267.87 1310.62 1270.35 1313.45 1273.57 1314.87 1277.53 1314.87 1281.49 1314.87 1284.76 1313.49 1287.34 1310.72 1289.91 1307.96 1291.2 1303.88 1291.2 1298.49L1291.2 1220.63C1291.2 1215.83 1289.91 1212.08 1287.34 1209.38 1284.76 1206.69 1281.49 1205.34 1277.53 1205.34ZM1277.83 1166.46C1274.2 1166.46 1271.01 1167.69 1268.27 1170.16 1265.53 1172.63 1264.16 1175.77 1264.16 1179.58 1264.16 1183.79 1265.49 1187.05 1268.17 1189.35 1270.84 1191.66 1274.06 1192.81 1277.83 1192.81 1281.46 1192.81 1284.6 1191.64 1287.24 1189.3 1289.88 1186.97 1291.2 1183.73 1291.2 1179.58 1291.2 1175.31 1289.85 1172.05 1287.14 1169.82 1284.43 1167.58 1281.33 1166.46 1277.83 1166.46ZM1278 1111C1348.14 1111 1405 1167.64 1405 1237.5 1405 1307.36 1348.14 1364 1278 1364 1207.86 1364 1151 1307.36 1151 1237.5 1151 1167.64 1207.86 1111 1278 1111Z" stroke="#FFFFFF" stroke-width="13.75" stroke-miterlimit="8" fill="none" fill-rule="evenodd"/></g></svg>