<svg width="883" height="408" xmlns="http://www.w3.org/2000/svg" xmlns:xlink="http://www.w3.org/1999/xlink" overflow="hidden"><defs><clipPath id="clip0"><rect x="2008" y="966" width="883" height="408"/></clipPath></defs><g clip-path="url(#clip0)" transform="translate(-2008 -966)"><path d="M2008 977.5C2008 971.149 2013.15 966 2019.5 966L2879.5 966C2885.85 966 2891 971.149 2891 977.5L2891 1023.5C2891 1029.85 2885.85 1035 2879.5 1035L2019.5 1035C2013.15 1035 2008 1029.85 2008 1023.5Z" fill="#FFFFFF" fill-rule="evenodd"/><path d="M2140 1093C2140 1086.93 2144.92 1082 2151 1082L2880 1082C2886.07 1082 2891 1086.93 2891 1093L2891 1137C2891 1143.07 2886.07 1148 2880 1148L2151 1148C2144.92 1148 2140 1143.07 2140 1137Z" fill="#FFFFFF" fill-rule="evenodd"/><path d="M2292 1206C2292 1199.92 2296.93 1195 2303 1195L2874 1195C2880.08 1195 2885 1199.92 2885 1206L2885 1250C2885 1256.07 2880.08 1261 2874 1261L2303 1261C2296.93 1261 2292 1256.07 2292 1250Z" fill="#FFFFFF" fill-rule="evenodd"/><path d="M2541 1319C2541 1312.93 2545.93 1308 2552 1308L2880 1308C2886.07 1308 2891 1312.93 2891 1319L2891 1363C2891 1369.07 2886.07 1374 2880 1374L2552 1374C2545.93 1374 2541 1369.07 2541 1363Z" fill="#FFFFFF" fill-rule="evenodd"/></g></svg>